<?xml version="1.0" encoding="UTF-8"?>
<svg id="Ebene_2" data-name="Ebene 2" xmlns="http://www.w3.org/2000/svg" viewBox="0 0 227.91 163.67">
  <defs>
    <style>
      .cls-1 {
        fill: #fff;
        stroke-width: 0px;
      }
    </style>
  </defs>
  <g id="Layer_1" data-name="Layer 1">
    <g>
      <path class="cls-1" d="M9.56,141.51c0-7.39,5.7-12.63,13.5-12.63s13.45,5.24,13.45,12.63-5.65,12.63-13.45,12.63-13.5-5.24-13.5-12.63ZM29.31,141.51c0-4.24-2.69-6.79-6.25-6.79s-6.29,2.55-6.29,6.79,2.74,6.79,6.29,6.79,6.25-2.55,6.25-6.79Z"/>
      <path class="cls-1" d="M64.69,129.21v1.05h6.29v5.47h-6.11v18.51h-7.11v-18.51h-3.78v-5.47h3.78v-1.09c0-5.52,3.38-9.12,9.49-9.12,2.01,0,4.1.41,5.43,1.32l-1.87,5.15c-.78-.55-1.78-.87-2.87-.87-2.1,0-3.24,1.14-3.24,3.56Z"/>
      <path class="cls-1" d="M75.8,122.49c0-2.23,1.78-3.97,4.42-3.97s4.42,1.64,4.42,3.83c0,2.37-1.78,4.1-4.42,4.1s-4.42-1.73-4.42-3.97Z"/>
      <rect class="cls-1" x="76.67" y="129.88" width="7.11" height="24.53"/>
      <path class="cls-1" d="M100.99,152.4l2.37-5.11c2.19,1.41,5.52,2.37,8.53,2.37,3.28,0,4.51-.87,4.51-2.23,0-4.01-14.82.09-14.82-9.71,0-4.65,4.2-7.94,11.35-7.94,3.37,0,7.11.78,9.44,2.14l-2.37,5.06c-2.42-1.37-4.83-1.82-7.07-1.82-3.19,0-4.56,1-4.56,2.28,0,4.2,14.82.14,14.82,9.8,0,4.56-4.24,7.8-11.58,7.8-4.15,0-8.35-1.14-10.63-2.65Z"/>
      <path class="cls-1" d="M141.94,153.5c-1.46,1.05-3.6,1.55-5.79,1.55-5.79,0-9.17-2.96-9.17-8.8v-10.08h-3.78v-5.47h3.78v-5.97h7.11v5.97h6.11v5.47h-6.11v9.99c0,2.1,1.14,3.24,3.06,3.24,1.05,0,2.1-.32,2.87-.91l1.92,5.02Z"/>
      <path class="cls-1" d="M168.39,130.15v24.53h-6.75v-2.92c-1.87,2.14-4.61,3.28-7.62,3.28-6.16,0-10.49-3.47-10.49-11.04v-13.86h7.11v12.81c0,4.1,1.82,5.93,4.97,5.93s5.65-2.1,5.65-6.61v-12.13h7.11Z"/>
      <path class="cls-1" d="M199.27,120.62v33.84h-6.79v-2.83c-1.78,2.14-4.38,3.19-7.66,3.19-6.93,0-12.27-4.93-12.27-12.63s5.34-12.63,12.27-12.63c3.01,0,5.56.96,7.34,2.96v-11.9h7.11ZM192.3,142.19c0-4.24-2.74-6.79-6.25-6.79s-6.29,2.55-6.29,6.79,2.74,6.79,6.29,6.79,6.25-2.55,6.25-6.79Z"/>
      <path class="cls-1" d="M227.91,129.92l-11.08,26.04c-2.37,5.93-5.75,7.71-10.17,7.71-2.51,0-5.24-.82-6.84-2.23l2.6-5.06c1.09.96,2.6,1.55,4.01,1.55,1.96,0,3.06-.87,4.01-3.06l.09-.23-10.63-24.72h7.34l6.89,16.65,6.93-16.65h6.84Z"/>
      <path class="cls-1" d="M157.89,50.41c-2.35,0-4.25,1.9-4.25,4.25,0,21.87-17.79,39.67-39.67,39.68,0,0,0,.01-.01.02,0,0,0-.01-.01-.02-13.04-15.88-31.24-20.96-31.24-20.96l-3.13-38.5v-.02s0,0,.01,0c.14.02,1.4.19,3.41.64,1.52.34,3.46.84,5.68,1.55,5.91,1.91,13.74,5.36,20.52,11.41,1.13,1.01,2.24,2.1,3.3,3.26.5.55.99,1.11,1.47,1.7.48-.59.97-1.15,1.47-1.7,1.06-1.16,2.17-2.25,3.3-3.26,3.17-2.83,6.56-5.09,9.89-6.89,3.79-2.05,7.48-3.5,10.63-4.52,2.22-.72,4.16-1.22,5.68-1.55,2.13-.48,3.42-.64,3.42-.64l-2.42,29.77,7.8-37.49s-2.43.3-6.23,1.27c.04-.42.06-.84.06-1.27,0-3.55-1.35-6.89-3.71-9.84-.35-9.13-5.82-17.29-5.82-17.29,0,0-6.13,2.39-11.49,7.16-3.88-1.01-8.12-1.56-12.57-1.56s-8.69.56-12.57,1.56c-5.36-4.77-11.49-7.16-11.49-7.16,0,0-5.31,7.92-5.8,16.88-3.71,2.94-6.97,6.4-9.68,10.29-.14-.02-.22-.03-.22-.03v.34c-5.31,7.74-8.42,17.11-8.42,27.18,0,26.57,21.62,48.19,48.19,48.19s48.19-21.62,48.19-48.19c0-2.35-1.9-4.25-4.25-4.25ZM114.11,48.05l-.15.2-.15-.2c-2.78-3.3-5.88-6.09-9.08-8.45-4.97-3.66-10.21-6.29-14.91-8.15,1.44-3.83,4.11-6.66,7.63-7.5,4.01-.96,8.2.86,11.42,4.45,2.19,2.45,3.92,5.72,4.82,9.49.11.44.19.88.27,1.32.08-.44.17-.88.27-1.32.9-3.77,2.64-7.04,4.82-9.49,2.4-2.69,5.35-4.38,8.37-4.66,1.02-.1,2.04-.03,3.05.21,3.52.84,6.2,3.67,7.63,7.5-2.93,1.16-6.08,2.63-9.23,4.45-1.9,1.1-3.81,2.33-5.67,3.7-3.21,2.36-6.3,5.15-9.08,8.45Z"/>
      <circle class="cls-1" cx="92.64" cy="149.37" r="4.01"/>
      <rect class="cls-1" y="117.22" width="7.11" height="36.34"/>
      <rect class="cls-1" x="39.72" y="137.15" width="10.85" height="7.11"/>
    </g>
  </g>
</svg>