<?xml version="1.0" encoding="UTF-8"?>
<svg id="Ebene_2" data-name="Ebene 2" xmlns="http://www.w3.org/2000/svg" viewBox="0 0 96.37 102.85">
  <defs>
    <style>
      .cls-1 {
        stroke-width: 0px;
      }
    </style>
  </defs>
  <g id="Layer_1" data-name="Layer 1">
    <path class="cls-1" d="m92.12,50.41c-2.35,0-4.25,1.9-4.25,4.25,0,21.87-17.79,39.67-39.67,39.68,0,0,0,.01-.01.02,0,0,0-.01-.01-.02-13.04-15.88-31.24-20.96-31.24-20.96l-3.13-38.5v-.02s0,0,.01,0c.14.02,1.4.19,3.41.64,1.52.34,3.46.84,5.68,1.55,5.91,1.91,13.74,5.36,20.52,11.41,1.13,1.01,2.24,2.1,3.3,3.26.5.55.99,1.11,1.47,1.7.48-.59.97-1.15,1.47-1.7,1.06-1.16,2.17-2.25,3.3-3.26,3.17-2.83,6.56-5.09,9.89-6.89,3.79-2.05,7.48-3.5,10.63-4.52,2.22-.72,4.16-1.22,5.68-1.55,2.13-.48,3.42-.64,3.42-.64l-2.42,29.77,7.8-37.49s-2.43.3-6.23,1.27c.04-.42.06-.84.06-1.27,0-3.55-1.35-6.89-3.71-9.84-.35-9.13-5.82-17.29-5.82-17.29,0,0-6.13,2.39-11.49,7.16-3.88-1.01-8.12-1.56-12.57-1.56s-8.69.56-12.57,1.56C30.25,2.39,24.13,0,24.13,0c0,0-5.31,7.92-5.8,16.88-3.71,2.94-6.97,6.4-9.68,10.29-.14-.02-.22-.03-.22-.03v.34C3.11,35.22,0,44.59,0,54.67c0,26.57,21.62,48.19,48.19,48.19s48.19-21.62,48.19-48.19c0-2.35-1.9-4.25-4.25-4.25Zm-43.78-2.37l-.15.2-.15-.2c-2.78-3.3-5.88-6.09-9.08-8.45-4.97-3.66-10.21-6.29-14.91-8.15,1.44-3.83,4.11-6.66,7.63-7.5,4.01-.96,8.2.86,11.42,4.45,2.19,2.45,3.92,5.72,4.82,9.49.11.44.19.88.27,1.32.08-.44.17-.88.27-1.32.9-3.77,2.64-7.04,4.82-9.49,2.4-2.69,5.35-4.38,8.37-4.66,1.02-.1,2.04-.03,3.05.21,3.52.84,6.2,3.67,7.63,7.5-2.93,1.16-6.08,2.63-9.23,4.45-1.9,1.1-3.81,2.33-5.67,3.7-3.21,2.36-6.3,5.15-9.08,8.45Z"/>
  </g>
</svg>